<svg width="20" height="20" viewBox="0 0 20 20" fill="none" xmlns="http://www.w3.org/2000/svg">
<mask id="mask0_23110_189699" style="mask-type:alpha" maskUnits="userSpaceOnUse" x="0" y="0" width="20" height="20">
<rect width="20" height="20" fill="#D9D9D9"/>
</mask>
<g mask="url(#mask0_23110_189699)">
<path fill-rule="evenodd" clip-rule="evenodd" d="M10.5832 17.5V11.5H10.583V10H12.083V10.0003H13.583V2.5H3.08301V16H0.833008V17.5H10.5832ZM9.08301 4H7.58301V5.5H9.08301V4ZM9.08301 7H7.58301V8.5H9.08301V7ZM9.08301 10H7.58301V11.5H9.08301V10ZM4.58301 11.5H6.08301V10H4.58301V11.5ZM4.58301 8.5H6.08301V7H4.58301V8.5ZM4.58301 5.5H6.08301V4H4.58301V5.5ZM10.583 8.5H12.083V7H10.583V8.5ZM10.583 5.5H12.083V4H10.583V5.5Z" fill="white"/>
<path d="M19.1668 13.3339H16.6666V10.834H15V13.3339H12.5V15.0006H15V17.5007H16.6666V15.0006H19.1668V13.3339Z" fill="white"/>
</g>
</svg>
