<svg width="20" height="20" viewBox="0 0 20 20" fill="none" xmlns="http://www.w3.org/2000/svg">
<mask id="mask0_23042_284973" style="mask-type:alpha" maskUnits="userSpaceOnUse" x="0" y="0" width="20" height="20">
<rect width="20" height="20" fill="#D9D9D9"/>
</mask>
<g mask="url(#mask0_23042_284973)">
<path d="M3.54163 15.7272V14.4772H5.20829V8.43555C5.20829 7.29666 5.55913 6.29305 6.26079 5.42471C6.9619 4.55694 7.86107 3.99805 8.95829 3.74805V3.16471C8.95829 2.87305 9.05913 2.62638 9.26079 2.42471C9.4619 2.2236 9.70829 2.12305 9.99996 2.12305C10.2916 2.12305 10.538 2.2236 10.7391 2.42471C10.9408 2.62638 11.0416 2.87305 11.0416 3.16471V3.74805C12.1388 3.99805 13.0383 4.55694 13.74 5.42471C14.4411 6.29305 14.7916 7.29666 14.7916 8.43555V14.4772H16.4583V15.7272H3.54163ZM9.99996 18.1647C9.58329 18.1647 9.22913 18.0189 8.93746 17.7272C8.64579 17.4355 8.49996 17.0814 8.49996 16.6647H11.5C11.5 17.0814 11.3541 17.4355 11.0625 17.7272C10.7708 18.0189 10.4166 18.1647 9.99996 18.1647Z" fill="#115A36"/>
</g>
</svg>
