<svg width="16" height="15" viewBox="0 0 16 15" fill="none" xmlns="http://www.w3.org/2000/svg">
<path d="M7.99967 14.9355L7.08301 14.1022C5.69412 12.8522 4.54829 11.7758 3.64551 10.873C2.74273 9.97027 2.02745 9.16805 1.49967 8.46638C0.971897 7.76527 0.603841 7.12638 0.395508 6.54971C0.187174 5.9736 0.0830078 5.38694 0.0830078 4.78971C0.0830078 3.60916 0.482452 2.61944 1.28134 1.82055C2.07967 1.02221 3.06912 0.623047 4.24967 0.623047C4.9719 0.623047 5.6594 0.793047 6.31217 1.13305C6.96495 1.4736 7.52745 1.96332 7.99967 2.60221C8.4719 1.96332 9.0344 1.4736 9.68717 1.13305C10.34 0.793047 11.0275 0.623047 11.7497 0.623047C12.9302 0.623047 13.9197 1.02221 14.718 1.82055C15.5169 2.61944 15.9163 3.60916 15.9163 4.78971C15.9163 5.38694 15.8122 5.9736 15.6038 6.54971C15.3955 7.12638 15.0275 7.76527 14.4997 8.46638C13.9719 9.16805 13.2566 9.97027 12.3538 10.873C11.4511 11.7758 10.3052 12.8522 8.91634 14.1022L7.99967 14.9355Z" fill="#333333"/>
</svg>
