<svg width="24" height="24" viewBox="0 0 24 24" fill="none" xmlns="http://www.w3.org/2000/svg">
<mask id="mask0_23041_283576" style="mask-type:alpha" maskUnits="userSpaceOnUse" x="0" y="0" width="24" height="24">
<rect width="24" height="24" fill="#D9D9D9"/>
</mask>
<g mask="url(#mask0_23041_283576)">
<path d="M4.25 18.8719V17.3719H6.25V10.1219C6.25 8.75521 6.671 7.55088 7.513 6.50888C8.35433 5.46754 9.43333 4.79688 10.75 4.49688V3.79688C10.75 3.44687 10.871 3.15087 11.113 2.90887C11.3543 2.66754 11.65 2.54688 12 2.54688C12.35 2.54688 12.6457 2.66754 12.887 2.90887C13.129 3.15087 13.25 3.44687 13.25 3.79688V4.49688C14.5667 4.79688 15.646 5.46754 16.488 6.50888C17.3293 7.55088 17.75 8.75521 17.75 10.1219V17.3719H19.75V18.8719H4.25ZM12 21.7969C11.5 21.7969 11.075 21.6219 10.725 21.2719C10.375 20.9219 10.2 20.4969 10.2 19.9969H13.8C13.8 20.4969 13.625 20.9219 13.275 21.2719C12.925 21.6219 12.5 21.7969 12 21.7969Z" fill="#333333"/>
</g>
</svg>
