<svg width="24" height="24" viewBox="0 0 24 24" fill="none" xmlns="http://www.w3.org/2000/svg">
<mask id="mask0_26193_268753" style="mask-type:alpha" maskUnits="userSpaceOnUse" x="0" y="0" width="24" height="24">
<rect width="24" height="24" fill="#D9D9D9"/>
</mask>
<g mask="url(#mask0_26193_268753)">
<path fill-rule="evenodd" clip-rule="evenodd" d="M12.7002 21V13.8H12.7V12H12.7002H14.5H16.3V3H3.7V19.2H1V21H12.7002ZM10.9 4.8H9.1V6.6H10.9V4.8ZM10.9 8.4H9.1V10.2H10.9V8.4ZM10.9 12H9.1V13.8H10.9V12ZM5.5 13.8H7.3V12H5.5V13.8ZM5.5 10.2H7.3V8.4H5.5V10.2ZM5.5 6.6H7.3V4.8H5.5V6.6ZM12.7 10.2H14.5V8.4H12.7V10.2ZM12.7 6.6H14.5V4.8H12.7V6.6Z" fill="#333333"/>
<path d="M23.0001 16H19.9999V13H18V16H15V17.9999H18V21.0001H19.9999V17.9999H23.0001V16Z" fill="#333333"/>
</g>
</svg>
