<svg width="16" height="16" viewBox="0 0 16 16" fill="none" xmlns="http://www.w3.org/2000/svg">
<mask id="mask0_27126_361050" style="mask-type:alpha" maskUnits="userSpaceOnUse" x="0" y="0" width="16" height="16">
<rect width="16" height="16" fill="#D9D9D9"/>
</mask>
<g mask="url(#mask0_27126_361050)">
<path d="M6.14685 11.334L11.332 8.00065L6.14685 4.66732V11.334ZM2.81351 14.6673C2.40611 14.6673 2.05734 14.5223 1.76722 14.2321C1.47709 13.942 1.33203 13.5932 1.33203 13.1858V2.81547C1.33203 2.40806 1.47709 2.05929 1.76722 1.76917C2.05734 1.47905 2.40611 1.33398 2.81351 1.33398H13.1839C13.5913 1.33398 13.9401 1.47905 14.2302 1.76917C14.5203 2.05929 14.6654 2.40806 14.6654 2.81547V13.1858C14.6654 13.5932 14.5203 13.942 14.2302 14.2321C13.9401 14.5223 13.5913 14.6673 13.1839 14.6673H2.81351Z" fill="white"/>
</g>
</svg>
