<svg width="20" height="20" viewBox="0 0 20 20" fill="none" xmlns="http://www.w3.org/2000/svg">
<mask id="mask0_23110_231916" style="mask-type:alpha" maskUnits="userSpaceOnUse" x="0" y="0" width="20" height="20">
<rect width="20" height="20" fill="#D9D9D9"/>
</mask>
<g mask="url(#mask0_23110_231916)">
<path d="M9.99967 17.9355L9.08301 17.1022C7.69412 15.8522 6.54829 14.7758 5.64551 13.873C4.74273 12.9703 4.02745 12.168 3.49967 11.4664C2.9719 10.7653 2.60384 10.1264 2.39551 9.54971C2.18717 8.9736 2.08301 8.38694 2.08301 7.78971C2.08301 6.60916 2.48245 5.61944 3.28134 4.82055C4.07967 4.02221 5.06912 3.62305 6.24967 3.62305C6.9719 3.62305 7.6594 3.79305 8.31217 4.13305C8.96495 4.4736 9.52745 4.96332 9.99967 5.60221C10.4719 4.96332 11.0344 4.4736 11.6872 4.13305C12.34 3.79305 13.0275 3.62305 13.7497 3.62305C14.9302 3.62305 15.9197 4.02221 16.718 4.82055C17.5169 5.61944 17.9163 6.60916 17.9163 7.78971C17.9163 8.38694 17.8122 8.9736 17.6038 9.54971C17.3955 10.1264 17.0275 10.7653 16.4997 11.4664C15.9719 12.168 15.2566 12.9703 14.3538 13.873C13.4511 14.7758 12.3052 15.8522 10.9163 17.1022L9.99967 17.9355ZM9.99967 16.248C11.333 15.0536 12.4302 14.0258 13.2913 13.1647C14.1525 12.3036 14.833 11.5569 15.333 10.9247C15.833 10.293 16.1802 9.73416 16.3747 9.24805C16.5691 8.76194 16.6663 8.27582 16.6663 7.78971C16.6663 6.95638 16.3886 6.26194 15.833 5.70638C15.2775 5.15082 14.583 4.87305 13.7497 4.87305C13.0969 4.87305 12.4891 5.06055 11.9263 5.43555C11.3641 5.81055 10.9233 6.33138 10.6038 6.99805H9.39551C9.06217 6.31749 8.61773 5.79305 8.06217 5.42471C7.50662 5.05694 6.90245 4.87305 6.24967 4.87305C5.41634 4.87305 4.7219 5.15082 4.16634 5.70638C3.61079 6.26194 3.33301 6.95638 3.33301 7.78971C3.33301 8.27582 3.43023 8.76194 3.62467 9.24805C3.81912 9.73416 4.16634 10.293 4.66634 10.9247C5.16634 11.5569 5.8469 12.3 6.70801 13.1539C7.56912 14.0083 8.66634 15.0397 9.99967 16.248Z" fill="#0871E1"/>
</g>
</svg>
