<svg width="20" height="20" viewBox="0 0 20 20" fill="none" xmlns="http://www.w3.org/2000/svg">
<mask id="mask0_25291_25138" style="mask-type:alpha" maskUnits="userSpaceOnUse" x="0" y="0" width="20" height="20">
<rect width="20" height="20" fill="#D9D9D9"/>
</mask>
<g mask="url(#mask0_25291_25138)">
<path d="M3 16.0575V11.3941L8.76917 9.99987L3 8.60566V3.91016L14.0752 8.59764H13.9214C12.5208 8.64572 11.3173 9.14785 10.3109 10.104C9.30447 11.0602 8.77456 12.2333 8.72115 13.6232L3 16.0575ZM14.0897 17.7562C13.0491 17.7562 12.164 17.3914 11.4343 16.6617C10.7046 15.932 10.3397 15.0469 10.3397 14.0063C10.3397 12.9657 10.7046 12.0805 11.4343 11.3508C12.164 10.6211 13.0491 10.2563 14.0897 10.2563C15.1303 10.2563 16.0154 10.6211 16.7451 11.3508C17.4748 12.0805 17.8397 12.9657 17.8397 14.0063C17.8397 15.0469 17.4748 15.932 16.7451 16.6617C16.0154 17.3914 15.1303 17.7562 14.0897 17.7562ZM15.4647 15.9005L15.9839 15.3813L14.4583 13.8587V11.5543H13.7211V14.1569L15.4647 15.9005Z" fill="#333333"/>
</g>
</svg>
