<svg width="20" height="21" viewBox="0 0 20 21" fill="none" xmlns="http://www.w3.org/2000/svg">
<path d="M4.42443 18.4177C4.00345 18.4177 3.64714 18.2718 3.35547 17.9802C3.0638 17.6885 2.91797 17.3322 2.91797 16.9112V5.75745C2.91797 5.33648 3.0638 4.98016 3.35547 4.68849C3.64714 4.39682 4.00345 4.25099 4.42443 4.25099H5.57818V2.48828H6.86026V4.25099H13.1744V2.48828H14.4244V4.25099H15.5782C15.9992 4.25099 16.3555 4.39682 16.6471 4.68849C16.9388 4.98016 17.0846 5.33648 17.0846 5.75745V16.9112C17.0846 17.3322 16.9388 17.6885 16.6471 17.9802C16.3555 18.2718 15.9992 18.4177 15.5782 18.4177H4.42443ZM4.42443 17.1677H15.5782C15.6423 17.1677 15.7011 17.1409 15.7544 17.0874C15.8079 17.0341 15.8346 16.9754 15.8346 16.9112V9.09078H4.16797V16.9112C4.16797 16.9754 4.19471 17.0341 4.24818 17.0874C4.30151 17.1409 4.36026 17.1677 4.42443 17.1677ZM4.16797 7.84078H15.8346V5.75745C15.8346 5.69328 15.8079 5.63453 15.7544 5.5812C15.7011 5.52772 15.6423 5.50099 15.5782 5.50099H4.42443C4.36026 5.50099 4.30151 5.52772 4.24818 5.5812C4.19471 5.63453 4.16797 5.69328 4.16797 5.75745V7.84078ZM10.0013 12.2318C9.79728 12.2318 9.62339 12.1599 9.47964 12.0162C9.33602 11.8726 9.26422 11.6987 9.26422 11.4945C9.26422 11.2905 9.33602 11.1166 9.47964 10.9729C9.62339 10.8293 9.79728 10.7574 10.0013 10.7574C10.2053 10.7574 10.3792 10.8293 10.523 10.9729C10.6666 11.1166 10.7384 11.2905 10.7384 11.4945C10.7384 11.6987 10.6666 11.8726 10.523 12.0162C10.3792 12.1599 10.2053 12.2318 10.0013 12.2318ZM6.66797 12.2318C6.46394 12.2318 6.29005 12.1599 6.1463 12.0162C6.00269 11.8726 5.93089 11.6987 5.93089 11.4945C5.93089 11.2905 6.00269 11.1166 6.1463 10.9729C6.29005 10.8293 6.46394 10.7574 6.66797 10.7574C6.872 10.7574 7.04589 10.8293 7.18964 10.9729C7.33325 11.1166 7.40505 11.2905 7.40505 11.4945C7.40505 11.6987 7.33325 11.8726 7.18964 12.0162C7.04589 12.1599 6.872 12.2318 6.66797 12.2318ZM13.3346 12.2318C13.1306 12.2318 12.9567 12.1599 12.813 12.0162C12.6694 11.8726 12.5976 11.6987 12.5976 11.4945C12.5976 11.2905 12.6694 11.1166 12.813 10.9729C12.9567 10.8293 13.1306 10.7574 13.3346 10.7574C13.5387 10.7574 13.7126 10.8293 13.8563 10.9729C13.9999 11.1166 14.0717 11.2905 14.0717 11.4945C14.0717 11.6987 13.9999 11.8726 13.8563 12.0162C13.7126 12.1599 13.5387 12.2318 13.3346 12.2318ZM10.0013 15.501C9.79728 15.501 9.62339 15.4291 9.47964 15.2854C9.33602 15.1418 9.26422 14.9679 9.26422 14.7639C9.26422 14.5597 9.33602 14.3858 9.47964 14.2422C9.62339 14.0985 9.79728 14.0266 10.0013 14.0266C10.2053 14.0266 10.3792 14.0985 10.523 14.2422C10.6666 14.3858 10.7384 14.5597 10.7384 14.7639C10.7384 14.9679 10.6666 15.1418 10.523 15.2854C10.3792 15.4291 10.2053 15.501 10.0013 15.501ZM6.66797 15.501C6.46394 15.501 6.29005 15.4291 6.1463 15.2854C6.00269 15.1418 5.93089 14.9679 5.93089 14.7639C5.93089 14.5597 6.00269 14.3858 6.1463 14.2422C6.29005 14.0985 6.46394 14.0266 6.66797 14.0266C6.872 14.0266 7.04589 14.0985 7.18964 14.2422C7.33325 14.3858 7.40505 14.5597 7.40505 14.7639C7.40505 14.9679 7.33325 15.1418 7.18964 15.2854C7.04589 15.4291 6.872 15.501 6.66797 15.501ZM13.3346 15.501C13.1306 15.501 12.9567 15.4291 12.813 15.2854C12.6694 15.1418 12.5976 14.9679 12.5976 14.7639C12.5976 14.5597 12.6694 14.3858 12.813 14.2422C12.9567 14.0985 13.1306 14.0266 13.3346 14.0266C13.5387 14.0266 13.7126 14.0985 13.8563 14.2422C13.9999 14.3858 14.0717 14.5597 14.0717 14.7639C14.0717 14.9679 13.9999 15.1418 13.8563 15.2854C13.7126 15.4291 13.5387 15.501 13.3346 15.501Z" fill="#333333"/>
</svg>
