<svg width="33" height="32" viewBox="0 0 33 32" fill="none" xmlns="http://www.w3.org/2000/svg">
<mask id="mask0_21524_228256" style="mask-type:alpha" maskUnits="userSpaceOnUse" x="0" y="0" width="33" height="32">
<rect x="0.333984" width="32" height="32" fill="#D9D9D9"/>
</mask>
<g mask="url(#mask0_21524_228256)">
<path d="M7.66797 26.9998V7.0665C7.66797 6.39984 7.9013 5.83317 8.36797 5.3665C8.83464 4.89984 9.4013 4.6665 10.068 4.6665H22.6013C23.268 4.6665 23.8346 4.89984 24.3013 5.3665C24.768 5.83317 25.0013 6.39984 25.0013 7.0665V26.9998L16.3346 23.2665L7.66797 26.9998ZM9.66797 23.9332L16.3346 21.0665L23.0013 23.9332V7.0665C23.0013 6.97762 22.9569 6.88873 22.868 6.79984C22.7791 6.71095 22.6902 6.6665 22.6013 6.6665H10.068C9.97908 6.6665 9.89019 6.71095 9.8013 6.79984C9.71241 6.88873 9.66797 6.97762 9.66797 7.0665V23.9332ZM9.66797 6.6665H23.0013H16.3346H9.66797Z" fill="#333333"/>
</g>
</svg>
